{"title":"The Night Manager S01E04 x264 RB58.mp4","uid":13862444,"size":664141834,"categoryP":"video","categoryS":"tv_shows","magnet":"?xt=urn:btih:a41c86e4f195db9a9e818ff668169742e7db2e49&amp;dn=The+Night+Manager+S01E04+x264+RB58.mp4&amp;tr=udp%3A%2F%2Ftracker.leechers-paradise.org%3A6969&amp;tr=udp%3A%2F%2Fzer0day.ch%3A1337&amp;tr=udp%3A%2F%2Fopen.demonii.com%3A1337&amp;tr=udp%3A%2F%2Ftracker.coppersurfer.tk%3A6969&amp;tr=udp%3A%2F%2Fexodus.desync.com%3A6969","seeders":1,"leechers":0,"uploader":"RedBaron58","files":1,"time":1458042949,"description":"The Night Manager S01E04 x264 mp4\r\n \nhttp://www.imdb.com/title/tt1399664/\r\n\r\nTrailer:\r\n\r\n\r\nPlease be patient My intial upload speed is limited.\r\nThank you for your kind comments and feedback on my other torrents, your feedback is welcome.\r\n\r\n\r\nAbout the Episode:\r\nPine is now firmly embedded in Roper's organisation and gets involved in an arms deal, \r\nbut his relationship with Jed and Corky's growing jealousy jeopardise his cover. \r\nBurr puts pressure on Apostol to help her translate the information she has received \r\non Roper's offshore operation, but begins to suspect the arms dealer has been buying \r\nweapons from the British government, a fear that Palfrey confirms. \r\nA tip-off leads her to Istanbul, but her attempt to catch Roper in the act puts Pine \r\nin further danger.\r\n\r\n\r\nI hope you enjoy.\r\n\r\n\r\nTechnical:\r\n\r\nGeneral\r\nComplete name                            : G:The Night Manager S01E04 x264 RB58.mp4\r\nFormat                                   : MPEG-4\r\nFormat profile                           : Base Media\r\nCodec ID                                 : isom\r\nFile size                                : 633 MiB\r\nDuration                                 : 58mn 2s\r\nOverall bit rate                         : 1 526 Kbps\r\nWriting application                      : Lavf54.63.104\r\n\r\nVideo\r\nID                                       : 1\r\nFormat                                   : AVC\r\nFormat/Info                              : Advanced Video Codec\r\nFormat profile                           :   \r\nFormat settings, CABAC                   : Yes\r\nFormat settings, ReFrames                : 4 frames\r\nCodec ID                                 : avc1\r\nCodec ID/Info                            : Advanced Video Coding\r\nDuration                                 : 58mn 2s\r\nBit rate                                 : 1 400 Kbps\r\nWidth                                    : 832 pixels\r\nHeight                                   : 468 pixels\r\nDisplay aspect ratio                     : 16:9\r\nFrame rate mode                          : Constant\r\nFrame rate                               : 25.000 fps\r\nColor space                              : YUV\r\nChroma subsampling                       : 4:2:0\r\nBit depth                                : 8 bits\r\nScan type                                : Progressive\r\nBits/(Pixel*Frame)                       : 0.144\r\nStream size                              : 581 MiB (92%)\r\nWriting library                          : x264 core 123 r2189 35cf912\r\nEncoding settings                        : cabac=1 / ref=3 / deblock=1:0:0\r\n\r\nAudio\r\nID                                       : 2\r\nFormat                                   : AAC\r\nFormat/Info                              : Advanced Audio Codec\r\nFormat profile                           : LC\r\nCodec ID                                 : 40\r\nDuration                                 : 58mn 2s\r\nBit rate mode                            : Constant\r\nBit rate                                 : 117 Kbps\r\nChannel(s)                               : 2 channels\r\nChannel positions                        : Front: L R\r\nSampling rate                            : 48.0 KHz\r\nCompression mode                         : Lossy\r\nStream size                              : 48.6 MiB (8%)","torrent":{"xt":"urn:btih:a41c86e4f195db9a9e818ff668169742e7db2e49","amp;dn":"The+Night+Manager+S01E04+x264+RB58.mp4","amp;tr":["udp%3A%2F%2Ftracker.leechers-paradise.org%3A6969","udp%3A%2F%2Fzer0day.ch%3A1337","udp%3A%2F%2Fopen.demonii.com%3A1337","udp%3A%2F%2Ftracker.coppersurfer.tk%3A6969","udp%3A%2F%2Fexodus.desync.com%3A6969"],"infoHash":"a41c86e4f195db9a9e818ff668169742e7db2e49","infoHashBuffer":{"type":"Buffer","data":[164,28,134,228,241,149,219,154,158,129,143,246,104,22,151,66,231,219,46,73]},"announce":[],"urlList":[]}}